<?xml version="1.0" encoding="utf-8"?>
<!-- Generator: Adobe Illustrator 25.2.1, SVG Export Plug-In . SVG Version: 6.00 Build 0)  -->
<svg version="1.1" id="Capa_1" xmlns="http://www.w3.org/2000/svg" xmlns:xlink="http://www.w3.org/1999/xlink" x="0px" y="0px"
	 viewBox="0 0 350 350" style="enable-background:new 0 0 350 350;" xml:space="preserve">
<style type="text/css">
	.st0{fill:#020203;}
</style>
<g>
	<path d="M200.78,205.61c25.67,10.69,42.61,29,48.34,56.46c3.68,17.65,1.67,34.91-7.37,50.69c-1.77,3.09-6.65,6.19-10.13,6.23
		c-37.74,0.45-75.48,0.24-113.22,0.33c-5.66,0.01-8.81-2.55-11.37-7.51c-19.14-37.11-4.2-83.02,33.49-102.25
		c2.62-1.34,5.29-2.56,8.9-4.3c-16.69-11.57-26.26-26.77-25.29-47.01c0.65-13.62,6.26-25.35,16.35-34.67
		c20.48-18.91,52.48-17.61,71.5,2.82C233.56,149.59,229.63,177.94,200.78,205.61z M174.82,303.59c16.42,0,32.85,0.23,49.27-0.24
		c2.59-0.07,6.47-2.75,7.4-5.13c4.11-10.58,5.04-21.44,2.7-32.9c-6.98-34.11-41.69-55.93-75.2-46.69
		c-33.44,9.22-52.51,44.74-41.99,77.42c1.96,6.09,4.85,7.88,11.02,7.7C143.61,303.29,159.22,303.59,174.82,303.59z M175.03,125.61
		c-19.73-0.12-35.47,15.52-35.44,35.22c0.03,19.61,15.96,35.53,35.43,35.39c19.23-0.14,34.71-15.59,35.04-34.96
		C210.39,141.64,194.76,125.73,175.03,125.61z"/>
	<path d="M247.27,30.7c25.11,0.09,45.49,20.32,45.56,45.24c0.08,25.06-20.83,45.71-46.17,45.59c-24.85-0.12-45.47-20.67-45.55-45.38
		C201.04,50.96,221.7,30.61,247.27,30.7z M216.94,75.97c-0.03,16.89,13.28,30.29,30.06,30.28c16.75-0.01,30.13-13.47,30.1-30.28
		c-0.02-16.78-13.45-30.3-30.09-30.31C230.37,45.66,216.97,59.16,216.94,75.97z"/>
	<path d="M106.24,30.69c25.46-0.05,45.52,19.6,45.64,44.71c0.12,25.78-19.76,46.06-45.21,46.14C81,121.62,61.07,101.62,61.12,75.83
		C61.17,50.38,80.79,30.74,106.24,30.69z M106.19,45.67c-16.52,0.09-29.96,13.73-29.95,30.37c0.01,16.69,13.38,30.15,30.04,30.22
		c16.75,0.08,31.09-14.29,30.69-30.73C136.57,59.17,122.56,45.58,106.19,45.67z"/>
	<path d="M65.99,242.84c-8.21,0-16.47,0.55-24.59-0.27c-3.38-0.34-7.85-2.83-9.49-5.68c-27.3-47.7,9.24-110.83,64.32-111.54
		c5.11-0.07,9.64,1.05,9.79,7.25c0.17,7.06-4.78,8.11-10.53,8.38c-40.13,1.85-67.18,42.41-53.94,80.34
		c1.73,4.94,3.85,6.92,9.18,6.76c12.57-0.37,25.16-0.08,37.75-0.13c5.63-0.02,12.03-0.38,12.19,7.31c0.17,8.53-6.75,7.6-12.51,7.59
		C80.76,242.83,73.38,242.85,65.99,242.84z"/>
	<path d="M284,243.36c-8.48-0.01-16.95-0.02-25.43-0.01c-4.9,0-9.04-1.55-9.13-7.07c-0.09-5.69,3.72-8.13,9.16-8.14
		c13.12-0.02,26.28-0.54,39.36,0.19c7.02,0.39,9.57-2.59,11.41-8.48c11.7-37.42-15.71-76.73-54.99-78.89
		c-3.02-0.17-6.6-1.15-8.73-3.07c-1.48-1.33-2-5.53-0.99-7.36c1.19-2.15,4.75-4.7,6.85-4.37c10.66,1.71,21.89,2.64,31.61,6.86
		c38.6,16.78,54.99,63.57,36.79,101.5c-2.98,6.21-6.7,9.37-13.78,8.94C298.78,243.03,291.38,243.37,284,243.36z"/>
</g>
</svg>
