<?xml version="1.0" encoding="utf-8"?>
<!-- Generator: Adobe Illustrator 25.2.1, SVG Export Plug-In . SVG Version: 6.00 Build 0)  -->
<svg version="1.1" id="Capa_1" xmlns="http://www.w3.org/2000/svg" xmlns:xlink="http://www.w3.org/1999/xlink" x="0px" y="0px"
	 viewBox="0 0 350 350" style="enable-background:new 0 0 350 350;" xml:space="preserve">
<style type="text/css">
	.st0{fill:#030304;}
	.st1{fill:#020203;}
</style>
<g>
	<path class="st1" d="M129.78,236.05c-17.02,0-33.8-4.58-50.2-13.72c-4.99-2.79-8.52-3.19-13.02-1.49
		c-6.36,2.4-12.68,4.48-20.01,6.9c-3.44,1.14-7.08,2.33-11,3.66c-1.66,0.56-3.51,0.14-4.75-1.1c-1.25-1.24-1.69-3.07-1.14-4.74
		c1.27-3.86,2.49-7.42,3.67-10.86c2.68-7.81,4.99-14.55,6.69-21.4c0.83-3.32,0.45-7.66-0.86-10.11
		c-14.67-27.21-17.7-57.58-8.51-85.5c9.1-27.66,29.28-50.05,56.82-63.03c25.67-12.11,56.18-12.22,83.7-0.29
		c28.19,12.22,49.53,35.23,58.53,63.14c16.66,51.66-7.58,107.02-56.4,128.77C158.67,232.79,144.14,236.05,129.78,236.05z
		 M71.54,210.54c4.08,0,8.16,1.21,12.56,3.67c27.54,15.36,56.28,16.56,85.41,3.57c44.48-19.82,66.55-70.31,51.35-117.45
		c-8.19-25.37-27.65-46.32-53.39-57.48C142.4,32,114.68,32.06,91.42,43.04c-25.21,11.89-43.67,32.32-51.96,57.54
		c-8.38,25.48-5.59,53.25,7.86,78.2c2.78,5.14,2.86,12.12,1.7,16.75c-1.8,7.24-4.17,14.16-6.92,22.18
		c-0.22,0.64-0.44,1.29-0.67,1.95c0.75-0.25,1.48-0.49,2.21-0.73c7.23-2.38,13.47-4.44,19.64-6.77
		C66.11,211.08,68.83,210.54,71.54,210.54z"/>
	<path class="st1" d="M220.03,325c-12.51,0-25.18-2.27-37.4-6.85c-28.77-10.78-51.01-32.82-61.01-60.47
		c-0.39-1.05-0.66-2.12-0.99-3.46c-0.19-0.76-0.42-1.67-0.73-2.81c-0.38-1.41-0.08-2.91,0.82-4.06c0.9-1.15,2.25-1.84,3.74-1.79
		c34.4,0.51,63.64-10.97,86.82-34.26c22.99-23.09,34.38-52.3,33.85-86.82c-0.02-1.5,0.68-2.92,1.9-3.81
		c1.21-0.89,2.78-1.14,4.21-0.66c28.81,9.57,49.02,26.78,61.79,52.64c16.05,32.52,15.38,65.8-1.97,98.92
		c-1.53,2.92-1.94,7.81-1.01,11.89c1.57,6.79,3.93,13.66,6.42,20.93c1.13,3.28,2.29,6.67,3.46,10.27c0.54,1.66,0.1,3.48-1.14,4.72
		c-1.24,1.23-3.06,1.67-4.72,1.13c-3.34-1.09-6.5-2.08-9.55-3.03c-6.64-2.07-12.92-4.03-18.96-6.47
		c-6.01-2.43-10.66-1.98-17.19,1.63C253.57,320.84,236.95,325,220.03,325z M130.46,254.81c9.14,24.97,29.32,44.86,55.43,54.65
		c26.21,9.82,54.63,8.02,77.97-4.94c8.99-4.98,16.51-5.61,25.17-2.12c5.68,2.3,11.5,4.11,18.24,6.21c0.31,0.1,0.62,0.19,0.93,0.29
		c-0.17-0.5-0.35-1.01-0.52-1.5c-2.57-7.5-5.01-14.59-6.69-21.86c-1.43-6.25-0.71-13.43,1.83-18.28
		c15.9-30.34,16.53-60.79,1.87-90.5c-10.7-21.66-27.2-36.68-50.33-45.75c-0.93,34.23-13.2,63.42-36.52,86.84
		C194.22,241.58,164.84,254,130.46,254.81z"/>
</g>
</svg>
