<?xml version="1.0" encoding="utf-8"?>
<!-- Generator: Adobe Illustrator 25.2.1, SVG Export Plug-In . SVG Version: 6.00 Build 0)  -->
<svg version="1.1" id="Capa_1" xmlns="http://www.w3.org/2000/svg" xmlns:xlink="http://www.w3.org/1999/xlink" x="0px" y="0px"
	 viewBox="0 0 683.58 291.55" style="enable-background:new 0 0 683.58 291.55;" xml:space="preserve">
<style type="text/css">
	.st0{fill:#BA753C;}
</style>
<path class="st0" d="M272.95,160.95c-1.83,0-2.21-0.11-2.47,0.02c-0.59,0.29-1.16,0.65-1.67,1.07
	c-11.85,9.84-20.33,22.25-27.2,35.87c-1.72,3.41-3.12,7.02-5.16,10.23c-3.23,5.09-7.38,6.85-11.22,4.98
	c-4.73-2.32-4.63-6.92-3.72-10.91c3.77-16.5,6.49-33.27,14.17-48.7c13.13-26.36,25.63-53.05,42.11-77.59
	c5.64-8.4,11.75-16.19,22.73-18.11c5.09-0.89,6.17-3.09,2.91-7.24C297,42.38,290,34.61,282.84,27.03c-2.77-2.93-6.95-3.12-10-0.2
	c-6.82,6.53-14.32,12.7-19.68,20.33c-8.19,11.67-15.29,24.19-21.98,36.81c-15.28,28.81-27.74,58.76-32.89,91.24
	c-2.87,18.05-2.94,36.2-0.1,54.28c1.66,10.56,6.46,15.54,15.2,16.51c9.59,1.07,14.99-2.72,19.99-14.32
	c1.77-4.11,4.21-7.52,8.92-7.64c4.88-0.12,7.81,3.27,9.83,7.35c2.88,5.82,5.75,11.64,8.44,17.55c6.87,15.1,24.09,18.56,36.34,11.82
	c14.82-8.16,28.17-18.4,39.13-31.43c2.33-2.77,3.86-6.2,5.76-9.32c-2.17,0.91-3.67,2.22-4.95,3.72
	c-10.55,12.27-23.56,21.55-37.01,30.24c-9.85,6.37-23.39,3.58-27.79-6.03c-2.69-5.87-4.46-12.18-6.3-18.4
	c-1.29-4.36,0.16-7.82,4.54-9.84c20.77-9.56,29.14-37.1,27.45-55.4c-0.33-3.57-3.32-7.53-6.19-10.06c-2.88-2.54-6.12-0.11-6.49,3.6
	c-0.63,6.39-0.76,13.06-2.82,19.02c-4.24,12.25-10.09,23.81-23.07,29.27c-2.15,0.9-5.79,1.12-7.29-0.12
	c-1.6-1.31-1.81-4.7-1.99-7.23c-0.11-1.51,0.78-3.24,1.59-4.66c4.2-7.35,8.39-14.72,12.85-21.91c1.56-2.51,3.94-4.5,5.82-6.82
	C271.08,164.25,271.75,162.88,272.95,160.95z"/>
<path class="st0" d="M188.81,60.12c0.47-13.57-8.02-17.7-19.39-14.92c-10.81,2.64-21.45,6.09-32.35,8.25
	c-11.94,2.37-21.87,6.82-26.57,18.98c-0.06,0.15-0.19,0.27-0.27,0.42c-1.01,2.13-2.02,4.26-3.03,6.39c2.44,0.79,4.87,1.58,7.31,2.35
	c0.31,0.1,0.66,0.06,0.99,0.09c9.69,0.83,12.68,4.15,11.25,13.97c-1.34,9.2-3.37,18.31-5.29,27.42c-1.99,9.43-3.54,19.03-6.45,28.18
	c-6.44,20.26-13.68,40.26-20.46,60.41c-2.26,6.71-5.92,11.67-13.08,13.86c-6.36,1.94-12.49,4.62-18.75,6.89
	c-7.58,2.74-12.6,8.61-17.36,14.59c-3,3.77-1.06,8.01,3.83,8.01c5.02,0,10.12-1.1,15.04-2.33c4.96-1.24,9.67-3.49,14.61-4.82
	c7.04-1.9,14.26-3.14,21.29-5.09c9.44-2.62,19.01-4.51,28.51-1.58c9.7,2.99,10.65,2.99,14.46-6.36c0.38-0.92,0.7-1.87,0.99-2.83
	c3.19-10.57,0.76-14.4-9.65-14.6c-8.31-0.16-12.07-4.4-11.8-12.72c0.1-3.12,0.7-6.33,1.68-9.29c2.21-6.62,5.23-12.99,7.16-19.68
	c7.28-25.24,15.28-50.34,20.99-75.94c3.85-17.25,11.97-27.94,29.61-30.82C187.2,68.12,189.63,64.97,188.81,60.12z"/>
<path class="st0" d="M582.51,148.73c-10.09,10.53-20.38,20.9-29.96,31.88c-4.2,4.81-7.14,10.8-10.06,16.56
	c-0.78,1.53-0.05,5.18,1.22,6.06c0.76,0.53,1.99,0.79,3.23,0.79c-1.24,0-2.47-0.26-3.23-0.79c-1.28-0.88-2-4.53-1.22-6.06
	c2.92-5.76,5.86-11.75,10.06-16.56C562.13,169.63,572.41,159.26,582.51,148.73c3.19-3.32,3.84-6.72,0.53-9.55
	c-5.04-4.32-13.36-8.29-21.29-8.13c7.93-0.16,16.25,3.81,21.29,8.13C586.35,142.01,585.69,145.41,582.51,148.73z"/>
<path class="st0" d="M547.68,212.92c-1.87,0.75-4.11,1.25-6.19,1.22C543.57,214.17,545.81,213.67,547.68,212.92
	c4.14-1.67,8.07-3.96,11.92-6.28c4.13-2.49,6.47-3.74,8.67-3.61c-2.21-0.14-4.54,1.11-8.67,3.61
	C555.75,208.96,551.82,211.25,547.68,212.92z"/>
<path class="st0" d="M509.35,206.27c-7.43,15.14-18.81,27.18-31.16,38.04c-8.03,7.06-17.56,12.77-27.15,17.62
	c-3.16,1.6-6.89,2.53-10.74,2.6c3.85-0.07,7.58-1,10.74-2.6c9.6-4.85,19.12-10.56,27.15-17.62
	C490.54,233.45,501.92,221.41,509.35,206.27c1.35-2.74,3.54-4.16,5.86-4.17C512.89,202.11,510.7,203.53,509.35,206.27z"/>
<path class="st0" d="M459.92,49.36c4.19,5.23,3.01,8.02-3.62,9.2c-9.02,1.6-15.25,6.71-20.38,13.98
	c-14.75,20.91-26.44,43.5-36.63,66.89c-5.38,12.35-10.7,24.79-14.84,37.58c-2.94,9.1-3.93,18.84-5.65,28.33
	c-0.65,3.61,0.45,7.41,4.05,8.08c0.32,0.06,0.66,0.09,1.02,0.09c-0.36,0-0.7-0.03-1.02-0.09c-3.6-0.67-4.71-4.47-4.05-8.08
	c1.72-9.48,2.71-19.23,5.65-28.33c4.14-12.79,9.46-25.23,14.84-37.58c10.19-23.38,21.87-45.97,36.63-66.89
	c5.13-7.27,11.36-12.38,20.38-13.98C462.93,57.39,464.11,54.59,459.92,49.36c-5.92-7.39-12.22-14.52-18.84-21.29
	c-2.43-2.49-4.95-3.76-7.47-3.77c2.52,0.01,5.04,1.28,7.47,3.77C447.69,34.85,453.99,41.98,459.92,49.36z"/>
<path class="st0" d="M640.21,180.2c-0.38,1.92-0.22,4.2-1.23,5.69c-2.33,3.43-5.04,6.65-7.91,9.64c-8.45,8.8-17.09,17.07-29.8,19.91
	c-2.08,0.47-4.07,0.67-5.97,0.64c1.9,0.03,3.89-0.18,5.97-0.64c12.7-2.84,21.35-11.11,29.8-19.91c2.88-3,5.59-6.21,7.91-9.64
	C639.99,184.4,639.84,182.12,640.21,180.2C640.21,180.2,640.21,180.2,640.21,180.2z"/>
<path class="st0" d="M453.9,162.47c3.48,16.88-6.92,48.62-26.53,56.58c-6.03,2.45-7.62,5.59-5.25,11.54
	c2.93,7.34,6.56,14.54,10.92,21.11c2.69,4.05,6.89,6.06,11.33,5.9c-4.44,0.16-8.64-1.85-11.33-5.9c-4.37-6.57-8-13.77-10.92-21.11
	c-2.37-5.95-0.78-9.09,5.25-11.54C446.98,211.09,457.37,179.35,453.9,162.47c-0.92-4.47-3.18-9.2-8.01-8.93h0
	C450.71,153.26,452.98,158,453.9,162.47z"/>
<path class="st0" d="M392.23,228.05c-1.19,1.56-1.96,3.46-2.81,5.26c-3.05,6.47-7.26,11.49-14.82,12.82
	c-1.43,0.25-2.8,0.36-4.11,0.32c1.31,0.04,2.68-0.07,4.11-0.32c7.56-1.33,11.77-6.35,14.82-12.82
	C390.27,231.51,391.04,229.61,392.23,228.05c2.15-2.82,4.54-4.24,6.85-4.21C396.76,223.81,394.37,225.23,392.23,228.05z"/>
<path class="st0" d="M588.03,172.55c1.02,2.98,0.58,6.77-0.16,9.98c-1.03,4.48-3.89,8.67-4.32,13.14
	c-0.86,8.93,4.16,14.66,11.45,14.73c-7.3-0.06-12.31-5.8-11.45-14.73c0.43-4.47,3.29-8.66,4.32-13.14
	C588.61,179.32,589.05,175.53,588.03,172.55c-0.96-2.81-2.86-4.16-4.92-4.05C585.17,168.39,587.07,169.74,588.03,172.55z"/>
<path class="st0" d="M572.33,180.53c1.86-3.15,3.81-6.29,6.06-9.17c1.43-1.83,3.12-2.79,4.72-2.86c-1.6,0.08-3.3,1.03-4.73,2.86
	C576.14,174.24,574.19,177.38,572.33,180.53c-5.53,9.36-12.83,17.04-22.05,22.71c-0.83,0.51-2.1,0.77-3.34,0.78
	c1.24,0,2.5-0.26,3.34-0.78C559.5,197.57,566.8,189.89,572.33,180.53z"/>
<path class="st0" d="M630.68,186.44c1.06-1.66,2.23-3.5,3.81-4.53c1.6-1.04,3.79-1.18,5.72-1.71c0,0,0,0,0,0
	c-1.93,0.53-4.12,0.67-5.72,1.71C632.91,182.94,631.75,184.77,630.68,186.44c-7.03,11-17.29,17.9-29.1,22.61
	c-2.32,0.93-4.54,1.35-6.59,1.34c2.04,0.02,4.26-0.41,6.59-1.34C613.4,204.34,623.66,197.44,630.68,186.44z"/>
<path class="st0" d="M468.22,245.05c19.36-13.94,34.2-31.55,42.6-54.15c1.15-3.11,1.42-6.57,2.72-9.6
	c8.27-19.22,20.77-35.31,37.97-47.12c3.11-2.13,6.64-3.06,10.24-3.13c-3.61,0.07-7.13,1-10.24,3.13
	c-17.19,11.8-29.7,27.9-37.97,47.12c-1.3,3.03-1.57,6.49-2.72,9.6C502.42,213.5,487.58,231.11,468.22,245.05
	c-5.64,4.06-11.55,7.89-17.77,10.96c-2,0.99-4.07,1.51-6.09,1.59c2.02-0.07,4.09-0.6,6.09-1.59
	C456.67,252.94,462.58,249.11,468.22,245.05z"/>
<path class="st0" d="M358,237.51c-1.66-4.12-2.48-8.61-3.31-13.01c-1.52-8.02-1.89-8.56-10.27-9.9c1.23-2.72,2.5-4.88,3.19-7.21
	c2.12-7.12,5.06-14.2,5.8-21.49c1.55-15.15,4.42-29.84,8.93-44.43c9.48-30.66,24.14-58.83,40.7-85.99
	c6.14-10.08,14.96-18.62,23.12-27.33c2.41-2.58,4.93-3.84,7.45-3.83c-2.52-0.01-5.03,1.25-7.45,3.83
	c-8.16,8.71-16.98,17.26-23.12,27.33c-16.56,27.16-31.22,55.33-40.7,85.99c-4.51,14.59-7.38,29.28-8.93,44.43
	c-0.74,7.29-3.68,14.37-5.8,21.49c-0.7,2.33-1.97,4.49-3.19,7.21c8.38,1.35,8.76,1.88,10.27,9.9
	C355.52,228.9,356.34,233.4,358,237.51c2.35,5.84,6.81,8.76,12.48,8.93C364.81,246.28,360.35,243.35,358,237.51z"/>
<path class="st0" d="M576.19,207.74c-3.63-3.05-5.71-4.57-7.92-4.7C570.47,203.17,572.55,204.69,576.19,207.74
	c1.15,0.96,2.22,2.04,3.47,2.86c4.93,3.28,9.94,5.41,15.65,5.49c-5.71-0.08-10.72-2.22-15.65-5.49
	C578.41,209.78,577.34,208.7,576.19,207.74z"/>
<path class="st0" d="M398.43,198.12c4.22-7.13,7.97-14.64,12.97-21.19c5.2-6.83,10.97-13.6,17.77-18.68
	c4.37-3.27,11-4.38,16.71-4.71c0,0,0,0,0,0c-5.72,0.33-12.34,1.44-16.71,4.71c-6.8,5.08-12.57,11.86-17.77,18.68
	C406.41,183.48,402.66,190.99,398.43,198.12c-2.46,4.15-4.26,8.82-7.35,12.4c-1.49,1.73-4.72,3.01-7.22,2.99
	c2.5,0.03,5.73-1.26,7.22-2.99C394.18,206.94,395.98,202.27,398.43,198.12z"/>
<path class="st0" d="M520.51,204.7c-1.61-1.75-3.49-2.61-5.3-2.6C517.02,202.1,518.9,202.95,520.51,204.7
	c5.19,5.64,11.99,7.68,18.96,9.21c0.64,0.14,1.32,0.21,2.01,0.22c-0.69-0.01-1.37-0.08-2.01-0.22
	C532.5,212.38,525.7,210.34,520.51,204.7z"/>
<path class="st0" d="M417.96,250.53c-3.64-7.65-8-15-12.47-22.21c-1.85-2.98-4.09-4.45-6.41-4.48c2.32,0.03,4.56,1.51,6.4,4.48
	C409.96,235.53,414.31,242.88,417.96,250.53c4.84,10.17,13.88,14.17,22.34,14.01C431.84,264.7,422.8,260.71,417.96,250.53z"/>
<path class="st0" d="M634.5,181.91c-1.59,1.03-2.75,2.86-3.81,4.53c-7.03,11-17.28,17.9-29.1,22.61c-2.32,0.93-4.54,1.35-6.59,1.34
	c-7.3-0.06-12.31-5.8-11.45-14.73c0.43-4.47,3.29-8.66,4.32-13.14c0.74-3.21,1.18-7,0.16-9.98c-0.96-2.81-2.86-4.15-4.92-4.05
	c-1.6,0.08-3.3,1.03-4.72,2.86c-2.25,2.88-4.19,6.02-6.06,9.17c-5.53,9.36-12.83,17.04-22.05,22.71c-0.83,0.51-2.1,0.77-3.34,0.78
	s-2.47-0.26-3.23-0.79c-1.28-0.88-2-4.53-1.22-6.06c2.92-5.76,5.86-11.75,10.06-16.56c9.58-10.98,19.87-21.35,29.96-31.88
	c3.19-3.32,3.84-6.72,0.53-9.55c-5.04-4.32-13.36-8.29-21.29-8.13c-3.61,0.07-7.13,1-10.24,3.13c-17.19,11.8-29.7,27.9-37.97,47.12
	c-1.3,3.03-1.57,6.49-2.72,9.6c-8.39,22.6-23.23,40.22-42.6,54.15c-5.64,4.06-11.55,7.89-17.77,10.96c-2,0.99-4.07,1.51-6.09,1.59
	c-4.44,0.16-8.64-1.85-11.33-5.9c-4.37-6.57-8-13.77-10.92-21.11c-2.37-5.95-0.78-9.09,5.25-11.54
	c19.62-7.96,30.01-39.7,26.53-56.58c-0.92-4.47-3.18-9.2-8.01-8.93c-5.72,0.33-12.34,1.44-16.71,4.71
	c-6.8,5.08-12.57,11.86-17.77,18.68c-4.99,6.55-8.74,14.06-12.97,21.19c-2.46,4.15-4.26,8.82-7.34,12.4
	c-1.49,1.73-4.72,3.01-7.22,2.99c-0.36,0-0.7-0.03-1.02-0.09c-3.6-0.67-4.71-4.47-4.05-8.08c1.72-9.48,2.71-19.23,5.65-28.33
	c4.14-12.79,9.46-25.23,14.84-37.58c10.19-23.38,21.87-45.97,36.63-66.89c5.13-7.27,11.36-12.38,20.38-13.98
	c6.62-1.18,7.81-3.97,3.62-9.2c-5.92-7.39-12.22-14.52-18.84-21.29c-2.43-2.49-4.95-3.76-7.47-3.77c-2.52-0.01-5.03,1.25-7.45,3.83
	c-8.16,8.71-16.98,17.26-23.12,27.33c-16.56,27.16-31.22,55.33-40.7,85.99c-4.51,14.59-7.38,29.28-8.93,44.43
	c-0.74,7.29-3.68,14.37-5.8,21.49c-0.7,2.33-1.97,4.49-3.19,7.21c8.38,1.35,8.76,1.88,10.27,9.9c0.83,4.4,1.65,8.89,3.31,13.01
	c2.35,5.84,6.81,8.76,12.48,8.93c1.31,0.04,2.68-0.07,4.11-0.32c7.56-1.33,11.77-6.35,14.82-12.82c0.85-1.8,1.62-3.7,2.81-5.26
	c2.14-2.82,4.54-4.24,6.85-4.21c2.32,0.03,4.56,1.51,6.41,4.48c4.48,7.21,8.83,14.56,12.47,22.21
	c4.84,10.17,13.88,14.17,22.34,14.01c3.85-0.07,7.58-1,10.74-2.6c9.6-4.85,19.12-10.56,27.15-17.62
	c12.35-10.86,23.73-22.9,31.16-38.04c1.35-2.74,3.54-4.16,5.86-4.17c1.8-0.01,3.68,0.85,5.3,2.6c5.19,5.64,11.99,7.68,18.96,9.21
	c0.64,0.14,1.32,0.21,2.01,0.22c2.08,0.04,4.32-0.46,6.19-1.22c4.14-1.67,8.07-3.96,11.92-6.28c4.13-2.49,6.47-3.74,8.67-3.61
	c2.21,0.14,4.29,1.66,7.92,4.7c1.15,0.96,2.23,2.04,3.47,2.86c4.93,3.28,9.94,5.41,15.65,5.49c1.9,0.03,3.89-0.18,5.97-0.64
	c12.7-2.84,21.35-11.11,29.8-19.91c2.88-3,5.59-6.21,7.91-9.64c1.01-1.49,0.86-3.77,1.23-5.69
	C638.28,180.73,636.1,180.87,634.5,181.91z M417.53,206.09c-5.29,3.53-10.07,0.79-10.22-8.2c1.13-2.24,3.22-6.66,5.56-10.94
	c2.05-3.76,4.32-7.4,6.59-11.03c3.75-6,6.5-12.85,12.99-16.62c1.51-0.88,4.31-1.46,5.41-0.66c1.4,1.03,2.63,3.8,2.28,5.47
	c-2.65,12.61-6.1,24.99-14.87,34.99C423,201.7,420.4,204.17,417.53,206.09z"/>
<path class="st0" d="M272.95,160.95c-1.2,1.93-1.87,3.3-2.8,4.45c-1.89,2.32-4.26,4.31-5.82,6.82c-4.46,7.19-8.66,14.55-12.85,21.91
	c-0.81,1.42-1.7,3.14-1.59,4.66c0.18,2.53,0.39,5.92,1.99,7.23c1.5,1.23,5.15,1.02,7.29,0.12c12.97-5.46,18.83-17.02,23.07-29.27
	c2.06-5.96,2.19-12.63,2.82-19.02c0.37-3.71,3.61-6.15,6.49-3.6c2.87,2.53,5.86,6.49,6.19,10.06c1.69,18.29-6.68,45.84-27.45,55.4
	c-4.38,2.02-5.83,5.48-4.54,9.84c1.84,6.22,3.61,12.53,6.3,18.4c4.4,9.6,17.94,12.4,27.79,6.03c13.45-8.7,26.45-17.98,37.01-30.24
	c1.29-1.49,2.79-2.8,4.95-3.72c-1.9,3.13-3.43,6.56-5.76,9.32c-10.96,13.04-24.3,23.27-39.13,31.43
	c-12.25,6.74-29.48,3.28-36.34-11.82c-2.69-5.91-5.56-11.73-8.44-17.55c-2.02-4.08-4.94-7.47-9.83-7.35
	c-4.71,0.12-7.15,3.53-8.92,7.64c-5,11.61-10.4,15.39-19.99,14.32c-8.74-0.98-13.54-5.96-15.2-16.51
	c-2.84-18.08-2.77-36.23,0.1-54.28c5.16-32.48,17.61-62.42,32.89-91.24c6.69-12.62,13.79-25.14,21.98-36.81
	c5.36-7.63,12.86-13.8,19.68-20.33c3.05-2.92,7.23-2.73,10,0.2c7.16,7.58,14.17,15.35,20.6,23.55c3.26,4.15,2.18,6.35-2.91,7.24
	c-10.98,1.92-17.09,9.7-22.73,18.11c-16.48,24.53-28.98,51.22-42.11,77.59c-7.68,15.43-10.4,32.2-14.17,48.7
	c-0.91,3.99-1.01,8.6,3.72,10.91c3.83,1.88,7.99,0.11,11.22-4.98c2.04-3.21,3.44-6.82,5.16-10.23c6.87-13.62,15.35-26.03,27.2-35.87
	c0.51-0.42,1.08-0.78,1.67-1.07C270.74,160.84,271.12,160.95,272.95,160.95z"/>
<path class="st0" d="M188.81,60.12c0.82,4.84-1.6,8-6.7,8.83c-17.65,2.88-25.77,13.56-29.61,30.82
	c-5.71,25.6-13.71,50.7-20.99,75.94c-1.93,6.69-4.96,13.06-7.16,19.68c-0.99,2.96-1.58,6.17-1.68,9.29
	c-0.27,8.32,3.49,12.56,11.8,12.72c10.41,0.2,12.84,4.03,9.65,14.6c-0.29,0.96-0.61,1.91-0.99,2.83c-3.81,9.36-4.77,9.35-14.46,6.36
	c-9.5-2.93-19.08-1.04-28.51,1.58c-7.03,1.95-14.25,3.19-21.29,5.09c-4.94,1.34-9.65,3.58-14.61,4.82
	c-4.91,1.23-10.02,2.33-15.04,2.33c-4.89,0-6.83-4.24-3.83-8.01c4.76-5.98,9.78-11.85,17.36-14.59c6.26-2.27,12.39-4.94,18.75-6.89
	c7.16-2.19,10.82-7.15,13.08-13.86c6.78-20.15,14.02-40.16,20.46-60.41c2.91-9.15,4.46-18.75,6.45-28.18
	c1.92-9.11,3.96-18.21,5.29-27.42c1.43-9.82-1.56-13.14-11.25-13.97c-0.33-0.03-0.68,0.01-0.99-0.09c-2.44-0.77-4.88-1.56-7.31-2.35
	c1.01-2.13,2.02-4.26,3.03-6.39c0.07-0.15,0.21-0.27,0.27-0.42c4.7-12.17,14.63-16.61,26.57-18.98c10.9-2.16,21.54-5.61,32.35-8.25
	C180.79,42.42,189.28,46.55,188.81,60.12z"/>
</svg>
