<?xml version="1.0" encoding="utf-8"?>
<!-- Generator: Adobe Illustrator 25.2.1, SVG Export Plug-In . SVG Version: 6.00 Build 0)  -->
<svg version="1.1" id="Capa_1" xmlns="http://www.w3.org/2000/svg" xmlns:xlink="http://www.w3.org/1999/xlink" x="0px" y="0px"
	 viewBox="0 0 350 350" style="enable-background:new 0 0 350 350;" xml:space="preserve">
<style type="text/css">
	.st0{fill:#030304;}
	.st1{fill:#020203;}
</style>
<path class="st1" d="M25,224.15c1.81-1.64,3.36-3.86,5.49-4.81c17.32-7.76,34.65-15.48,52.15-22.79
	c10.63-4.45,21.95-4.07,33.18-3.08c9.75,0.87,18.9,3.72,26.89,9.62c1.49,1.1,2.88,2.32,3.93,3.18c3.21-2.67,5.97-5.95,9.5-7.63
	c3.63-1.73,8.02-1.87,12.06-2.79c1.04-0.24,2.43-0.47,2.97-1.21c6.29-8.55,19.57-10.73,29.54-6.41c0.45,0.2,0.89,0.39,1.42,0.62
	c6-5.85,12.77-9.95,21.99-9.21c2.25-8.25,4.48-16.45,6.77-24.87c-4.13,0.59-7.81,1.37-11.53,1.61
	c-13.48,0.86-25.55-2.38-34.94-12.72c-5.82-6.42-8.61-14.21-10.02-22.63c-3.53-21,3.71-39.07,14.97-56.16
	c4.34-6.59,8.62-13.25,12.19-20.26c1.78-3.48,2.31-7.79,2.61-11.79c0.27-3.68,1.3-6.38,4.79-7.82c0.98,0,1.96,0,2.92,0
	c14.18,6.53,27.9,13.84,40.29,23.45c11.92,9.26,22.32,19.88,29.18,33.48c8.26,16.34,11.17,33.28,3.21,50.59
	c-5.77,12.53-15.77,19.9-29.66,21.1c-3.57,0.3-7.28-0.86-11.02-1.37c-2.43,9.51-4.93,19.32-7.48,29.24
	c5.26,2.03,9.74,4.99,13.13,9.5c0.51,0.66,2.25,0.86,3.27,0.62c13.31-3.15,25.63,1.96,31.67,13.34c0.99,1.88,1.69,3.92,2.43,5.67
	c5.16-1.28,10.22-2.98,15.42-3.74c10.75-1.58,20.03,4.91,22.28,15.25c1.27,5.85-0.59,11.2-4.3,15.53
	c-3.51,4.1-7.42,8.17-11.88,11.14c-34.52,22.91-69.2,45.6-103.9,68.24c-8.23,5.38-17.23,8.65-27.31,7.79
	c-7.99-0.68-15.38-3.35-22.44-6.96c-16.9-8.67-33.76-17.39-50.66-26.09c-0.86-0.45-1.76-0.84-2.59-1.36
	c-7.04-4.3-13.67-3.9-20.33,1.12c-4.58,3.47-9.54,6.42-14.43,9.47c-4.31,2.7-8.8,1.02-9.8-3.56c-0.6-2.71,0.68-4.85,2.79-6.26
	c6.75-4.45,13.51-8.92,20.47-13.04c7.93-4.67,16.11-3.86,24.03,0.17c17.18,8.74,34.25,17.76,51.51,26.35
	c5.97,2.97,12.27,5.41,18.66,7.31c6.6,1.97,13.29,0.8,19.16-2.8c14.46-8.86,28.88-17.8,43.07-27.07
	c21.39-13.97,42.6-28.2,63.78-42.51c3.59-2.43,6.78-5.55,9.78-8.7c2.11-2.2,3.54-5.03,1.82-8.26c-1.76-3.3-4.84-4.08-8.23-3.78
	c-6.98,0.62-13.16,3.59-18.86,7.37c-17.17,11.35-34.2,22.88-51.27,34.37c-2.98,2-5.7,4.43-8.79,6.24
	c-5.08,2.95-10.81,3.95-16.6,4.01c-13.85,0.15-27.78,0.81-41.57-0.2c-11.68-0.86-23.23-3.62-34.77-5.83
	c-3.66-0.69-5.67-4.51-4.72-7.55c1.03-3.3,4.18-4.82,7.96-4.08c9.36,1.81,18.72,3.56,28.1,5.25c1.52,0.27,3.11,0.24,4.67,0.24
	c13.37,0.02,26.76,0.15,40.13-0.11c3.51-0.06,7.05-1.18,10.48-2.2c2.92-0.87,4.25-3.36,4.3-6.33c0.05-3-1.33-5.5-4.18-6.44
	c-3.57-1.16-7.3-2.31-11-2.44c-17.3-0.68-34.02-4.18-50.07-10.48c-4.13-1.61-7.7-4.78-11.28-7.57c-2.29-1.78-4.07-4.19-6.12-6.29
	c-7.58-7.78-17.15-10.64-27.65-11.58c-12.45-1.12-24.19,1.06-35.51,6.29c-13.61,6.29-27.34,12.27-41.02,18.45
	c-5.61,2.53-7.22,2.25-10.99-2.37C25,226.51,25,225.33,25,224.15z M216.56,40.65c-2.26,5-4.01,9.89-6.57,14.3
	c-4.24,7.33-9.07,14.32-13.54,21.53c-7.64,12.39-12.38,25.55-10.39,40.44c0.93,6.96,2.77,13.54,7.61,18.92
	c9.5,10.57,27.39,10.3,38.35,5.06c0.69-0.33,1.37-1.49,1.42-2.29c0.42-7.3,1.06-14.59,0.95-21.89c-0.24-15.66-4.18-30.6-9.8-45.13
	c-0.59-1.52-1.1-3.14-1.3-4.76c-0.32-2.55,1.43-5.29,3.83-5.91c2.58-0.68,5.14-0.44,6.72,2.11c0.96,1.55,1.64,3.29,2.31,5
	c4.85,12.57,8.83,25.43,9.62,38.95c0.56,9.8,0.17,19.66,0.03,29.48c-0.03,1.9,0.27,3.06,2.17,3.81c4.64,1.84,9.12,1.6,13.55-0.63
	c10.7-5.38,14.8-14.74,15.34-26.03c0.59-12.48-3.78-23.56-10.76-33.61C253.53,61.95,235.65,50.46,216.56,40.65z M234.57,245.36
	c13.58-9.13,26.85-18.03,40.07-27c0.5-0.35,0.92-1.25,0.89-1.88c-0.24-5.55-4.6-11.17-10.01-12.84c-5-1.55-9.8-0.48-14.53,1.37
	c-4.45,1.75-7.37,0.92-9.26-3.18c-2.77-6.06-7.54-8.77-13.82-9.8c-8.68-1.4-14.15,0.87-18.9,8.25c-2.64,4.1-6.68,4.6-10.28,1.27
	c-6.06-5.61-15.56-4.1-19.22,3.09c-1.33,2.62-3.39,3.95-6.3,3.86c-1.46-0.05-2.89-0.39-4.36-0.45c-4.15-0.18-8.08,0.32-10.54,4.25
	c-1.96,3.14-1.54,5.29,1.88,6.41c8.67,2.83,17.35,5.86,26.26,7.66c8.73,1.76,17.77,1.96,26.65,3.15
	C222.92,230.83,231.12,234.63,234.57,245.36z"/>
</svg>
