<?xml version="1.0" encoding="utf-8"?>
<!-- Generator: Adobe Illustrator 25.2.1, SVG Export Plug-In . SVG Version: 6.00 Build 0)  -->
<svg version="1.1" id="Capa_1" xmlns="http://www.w3.org/2000/svg" xmlns:xlink="http://www.w3.org/1999/xlink" x="0px" y="0px"
	 viewBox="0 0 350 350" style="enable-background:new 0 0 350 350;" xml:space="preserve">
<style type="text/css">
	.st0{fill:#030304;}
	.st1{fill:#020203;}
</style>
<g>
	<path class="st1" d="M25.56,319.13c-0.23-1.79-0.56-3.21-0.56-4.62c0.09-47.28-0.07-94.57,0.46-141.84
		c0.27-23.53,11.46-41.98,30.14-55.78c4.01-2.97,5.59-5.86,5.51-10.68c-0.23-16.16-0.46-32.34,0.09-48.49
		c0.25-7.26-1.75-10.43-9.2-9.29c-1.09,0.17-2.29-0.38-3.21-0.55c-0.3-0.51-0.52-0.71-0.54-0.93c-1.91-15.98-1.91-15.98,13.92-15.98
		c25.34,0,50.69,0.13,76.03-0.1c5.54-0.04,8.84,0.93,8.22,7.39c-0.48,4.96,1.71,11.45-7.31,10.27c-4.63-0.61-6.43,1.46-6.37,6.21
		c0.19,17.61-0.12,35.22,0.27,52.83c0.06,2.78,2.05,6.4,4.31,8.09c20.19,15.17,31.49,34.79,31.5,60.37
		c0.03,46.32,0.04,92.64,0.04,138.96c0,1.19-0.16,2.39-0.29,4.12C121.1,319.13,73.71,319.13,25.56,319.13z M41.87,234.68
		c0,20.01,0.19,40.03-0.12,60.04c-0.09,6.03,1.98,7.89,7.92,7.86c31.36-0.22,62.73-0.26,94.09,0.03c6.27,0.06,8.22-1.62,8.16-8.09
		c-0.3-38.58-0.51-77.17-0.01-115.74c0.3-23.98-9.96-41.15-30.71-52.31c-4.25-2.29-5.59-4.92-5.53-9.61
		c0.26-20.26-0.03-40.52,0.2-60.76c0.06-5.46-1.39-7.94-7.28-7.64c-7.7,0.39-15.44,0.36-23.15,0.01c-5.44-0.25-7.05,1.85-6.99,7.13
		c0.25,19.54-0.12,39.07,0.22,58.59c0.1,6.19-1.45,9.94-7.29,13.14c-20.26,11.04-29.71,28.68-29.55,51.68
		C41.97,197.55,41.87,216.11,41.87,234.68z"/>
	<path class="st1" d="M97.24,162.45c13.66,16.82,29.25,30.95,34.27,52.07c3.49,14.64-1.4,27.62-12.85,35.67
		c-11.56,8.12-28.97,8.41-40.95,0.68c-12.23-7.89-18.9-22.18-15.3-36.21C67.8,193.64,82.36,178.5,97.24,162.45z M99.02,188.65
		c-1.17,0.03-2.33,0.04-3.5,0.07c-5.22,9.02-11.03,17.74-15.5,27.12c-3.57,7.51-0.77,14.95,5.69,19.85
		c6.18,4.69,17.02,4.88,23.92,0.42c4.65-3,8.25-12.62,5.33-18.9C110.36,207.34,104.4,198.14,99.02,188.65z"/>
	<path class="st1" d="M226.71,134.67c3.21-6.79,6.54-13.88,9.94-20.95c4.76-9.9,9.41-19.85,14.37-29.64
		c13.65-26.86,49.45-30.3,66.44-6.41c9.59,13.5,9.57,27.73,2.59,42.27c-7.16,14.92-14.36,29.82-21.68,44.67
		c-1.5,3.05-2.2,4.96,1.81,6.83c4.8,2.24,6.21,7.37,4.12,11.63c-2.27,4.7-6.74,6.35-12.07,3.81
		c-25.86-12.39-51.66-24.89-77.42-37.49c-5.09-2.49-6.71-7.39-4.63-11.94c2.19-4.75,6.82-6.12,12.55-3.72
		c0.75,0.32,1.49,0.67,2.26,0.94C225.29,134.79,225.64,134.69,226.71,134.67z M281.34,161.09c0.75-2.34,1.22-4.65,2.19-6.7
		c6.86-14.33,13.81-28.62,20.77-42.89c3.42-7,4.57-14.05,0.35-21.1c-4.3-7.18-10.75-11.08-19.12-10.75
		c-8.49,0.33-14.86,4.5-18.64,12.33c-7.68,15.93-15.43,31.84-23.11,47.77c-0.46,0.97-0.64,2.07-0.85,2.76
		C255.49,148.59,267.67,154.48,281.34,161.09z"/>
	<path class="st1" d="M263.22,188.11c5.34,2.34,10.4,4.56,16.48,7.22c-4.24,8.36-8.25,16.03-12.05,23.79
		c-6.37,12.95-12.65,25.95-18.87,38.96c-3.44,7.18-8.6,12.58-16.41,14.4c-13.04,3.02-23.15,9.49-30.17,21.26
		c-3.63,6.08-10.59,6.11-14.3,0.98c-1.07-1.49-1.5-3.56-1.82-5.43c-0.2-1.22,0.1-2.68,0.62-3.83c5.3-11.97,3.44-23.41-1.77-34.93
		c-3.66-8.09-2.62-16.19,1.35-24.15c9.42-18.93,18.62-37.97,27.93-56.96c0.64-1.3,1.37-2.56,2.33-4.33
		c5.06,2.55,9.96,5.01,15.31,7.71c-0.8,1.84-1.5,3.6-2.34,5.33c-8.86,18.31-17.63,36.65-26.67,54.86c-2.37,4.78-2.84,9.2-0.78,14.11
		c1.58,3.78,2.82,7.7,4.05,11.61c0.82,2.65,1.98,3.85,4.98,2.69c5.19-2.01,10.72-3.28,15.69-5.72c2.68-1.32,5.18-4.05,6.54-6.76
		c9.35-18.61,18.36-37.38,27.49-56.09C261.58,191.21,262.44,189.65,263.22,188.11z"/>
</g>
</svg>
